<svg width="27" height="27" viewBox="0 0 27 27" fill="none" xmlns="http://www.w3.org/2000/svg">
<path d="M25.2391 4.69531H11.1519C10.1795 4.69531 9.39099 5.48374 9.39099 6.45622C9.39099 7.42869 10.1795 8.21712 11.1519 8.21712H25.2391C26.2117 8.21712 27 7.42869 27 6.45622C27 5.48374 26.2117 4.69531 25.2391 4.69531Z" fill="#253947"/>
<path d="M25.2391 11.7402H11.1519C10.1795 11.7402 9.39099 12.5287 9.39099 13.5011C9.39099 14.4736 10.1795 15.262 11.1519 15.262H25.2391C26.2117 15.262 27 14.4736 27 13.5011C27 12.5287 26.2117 11.7402 25.2391 11.7402Z" fill="#253947"/>
<path d="M25.2391 18.7832H11.1519C10.1795 18.7832 9.39099 19.5716 9.39099 20.5441C9.39099 21.5166 10.1795 22.305 11.1519 22.305H25.2391C26.2117 22.305 27 21.5166 27 20.5441C27 19.5716 26.2117 18.7832 25.2391 18.7832Z" fill="#253947"/>
<path d="M3.00528 21.7895C3.33408 21.4621 3.52181 21.0078 3.52181 20.5441C3.52181 20.0816 3.33397 19.6272 3.00528 19.2996C2.67785 18.9721 2.22344 18.7832 1.76091 18.7832C1.29732 18.7832 0.842906 18.9721 0.515478 19.2996C0.18784 19.6273 0 20.0804 0 20.5441C0 21.0078 0.18784 21.4621 0.515478 21.7895C0.842906 22.1171 1.29732 22.3061 1.76091 22.3061C2.22333 22.3062 2.67775 22.1172 3.00528 21.7895Z" fill="#253947"/>
<path d="M1.76091 15.2601C2.22333 15.2601 2.67775 15.0721 3.00528 14.7446C3.33408 14.4172 3.52181 13.9629 3.52181 13.4992C3.52181 13.0367 3.33397 12.5822 3.00528 12.2547C2.67785 11.926 2.22344 11.7383 1.76091 11.7383C1.29732 11.7383 0.842906 11.9261 0.515478 12.2547C0.18784 12.5823 0 13.0355 0 13.4992C0 13.9629 0.18784 14.4172 0.515478 14.7446C0.842906 15.0723 1.29732 15.2601 1.76091 15.2601Z" fill="#253947"/>
<path d="M1.76091 8.21712C2.22333 8.21712 2.67775 8.02918 3.00528 7.70165C3.33397 7.37422 3.52181 6.91991 3.52181 6.45622C3.52181 5.99369 3.33397 5.53927 3.00528 5.21174C2.67785 4.88305 2.22344 4.69531 1.76091 4.69531C1.29732 4.69531 0.842906 4.88315 0.515478 5.21174C0.18784 5.53938 0 5.99253 0 6.45622C0 6.92107 0.18784 7.37422 0.515478 7.70165C0.842906 8.02934 1.29732 8.21712 1.76091 8.21712Z" fill="#253947"/>
</svg>
