<svg width="35" height="33" viewBox="0 0 35 33" fill="none" xmlns="http://www.w3.org/2000/svg">
<path fill-rule="evenodd" clip-rule="evenodd" d="M7 1.5H27.2496C30.2872 1.5 32.7496 3.96243 32.7496 7V21.1545C32.7496 24.1921 30.2872 26.6545 27.2496 26.6545H7C3.96243 26.6545 1.5 24.1921 1.5 21.1545V7C1.5 3.96243 3.96243 1.5 7 1.5ZM0 7C0 3.13401 3.13401 0 7 0H27.2496C31.1156 0 34.2496 3.13401 34.2496 7V21.1545C34.2496 25.0205 31.1156 28.1545 27.2496 28.1545H9.27582L9.27594 28.1546L0 32.6V21.1545V18.5228V7Z" fill="white"/>
</svg>
