<svg width="23" height="22" viewBox="0 0 23 22" fill="none" xmlns="http://www.w3.org/2000/svg">
<path fill-rule="evenodd" clip-rule="evenodd" d="M7 2.12305H15.0176C18.0552 2.12305 20.5176 4.58548 20.5176 7.62305V12.085C20.5176 15.1226 18.0552 17.585 15.0176 17.585H7.00001C3.96244 17.585 1.5 15.1226 1.5 12.085V7.62305C1.5 4.58548 3.96243 2.12305 7 2.12305ZM0 7.62305C0 3.75706 3.13401 0.623047 7 0.623047H15.0176C18.8836 0.623047 22.0176 3.75705 22.0176 7.62305V12.085C22.0176 15.951 18.8836 19.085 15.0176 19.085H7.00001C6.6049 19.085 6.21744 19.0523 5.84018 18.9894L5.9631 19.085L0 22.0001V12.7691L0.038421 12.8228C0.0130214 12.5804 0 12.3342 0 12.085V7.62305Z" fill="#6A7881"/>
</svg>
