<svg width="39" height="36" viewBox="0 0 39 36" fill="none" xmlns="http://www.w3.org/2000/svg">
<g filter="url(#filter0_d_456_751)">
<ellipse cx="19.5" cy="17" rx="17.5" ry="16" fill="#F8FAFC"/>
<path d="M10 17H19V18.375H10V17ZM8.5 13.5625H16V14.9375H8.5V13.5625Z" fill="#3A4569"/>
<path d="M29.4393 17.4166L27.1893 12.6041C27.1315 12.4804 27.0354 12.375 26.9129 12.3009C26.7903 12.2269 26.6468 12.1874 26.5 12.1875H24.25V10.8125C24.25 10.6302 24.171 10.4553 24.0303 10.3264C23.8897 10.1974 23.6989 10.125 23.5 10.125H11.5V11.5H22.75V20.1322C22.4083 20.3142 22.1092 20.5563 21.87 20.8447C21.6308 21.1331 21.4563 21.462 21.3565 21.8125H16.6435C16.461 21.1644 16.0268 20.5996 15.4225 20.224C14.8182 19.8483 14.0851 19.6876 13.3608 19.7719C12.6364 19.8563 11.9705 20.1799 11.4878 20.6821C11.0051 21.1843 10.7388 21.8307 10.7388 22.5C10.7388 23.1693 11.0051 23.8157 11.4878 24.3179C11.9705 24.8201 12.6364 25.1437 13.3608 25.2281C14.0851 25.3124 14.8182 25.1517 15.4225 24.776C16.0268 24.4004 16.461 23.8356 16.6435 23.1875H21.3565C21.5197 23.7775 21.8928 24.3009 22.4168 24.6747C22.9409 25.0485 23.586 25.2515 24.25 25.2515C24.914 25.2515 25.5591 25.0485 26.0832 24.6747C26.6072 24.3009 26.9804 23.7775 27.1435 23.1875H28.75C28.9489 23.1875 29.1397 23.1151 29.2803 22.9861C29.421 22.8572 29.5 22.6823 29.5 22.5V17.6875C29.5 17.5944 29.4794 17.5022 29.4393 17.4166ZM13.75 23.875C13.4533 23.875 13.1633 23.7944 12.9167 23.6433C12.67 23.4922 12.4777 23.2774 12.3642 23.0262C12.2507 22.7749 12.221 22.4985 12.2788 22.2317C12.3367 21.965 12.4796 21.72 12.6893 21.5277C12.8991 21.3354 13.1664 21.2045 13.4574 21.1514C13.7483 21.0984 14.0499 21.1256 14.324 21.2297C14.5981 21.3337 14.8324 21.51 14.9972 21.7361C15.162 21.9622 15.25 22.228 15.25 22.5C15.2496 22.8646 15.0914 23.2141 14.8102 23.4719C14.529 23.7297 14.1477 23.8746 13.75 23.875ZM24.25 13.5625H26.005L27.613 17H24.25V13.5625ZM24.25 23.875C23.9533 23.875 23.6633 23.7944 23.4167 23.6433C23.17 23.4922 22.9777 23.2774 22.8642 23.0262C22.7507 22.7749 22.721 22.4985 22.7788 22.2317C22.8367 21.965 22.9796 21.72 23.1893 21.5277C23.3991 21.3354 23.6664 21.2045 23.9574 21.1514C24.2483 21.0984 24.5499 21.1256 24.824 21.2297C25.0981 21.3337 25.3324 21.51 25.4972 21.7361C25.662 21.9622 25.75 22.228 25.75 22.5C25.7496 22.8646 25.5914 23.2141 25.3102 23.4719C25.029 23.7297 24.6477 23.8746 24.25 23.875ZM28 21.8125H27.1435C26.9783 21.2236 26.6046 20.7016 26.0809 20.3284C25.5573 19.9551 24.9133 19.7517 24.25 19.75V18.375H28V21.8125Z" fill="#3A4569"/>
</g>
<defs>
<filter id="filter0_d_456_751" x="0" y="0" width="39" height="36" filterUnits="userSpaceOnUse" color-interpolation-filters="sRGB">
<feFlood flood-opacity="0" result="BackgroundImageFix"/>
<feColorMatrix in="SourceAlpha" type="matrix" values="0 0 0 0 0 0 0 0 0 0 0 0 0 0 0 0 0 0 127 0" result="hardAlpha"/>
<feOffset dy="1"/>
<feGaussianBlur stdDeviation="1"/>
<feComposite in2="hardAlpha" operator="out"/>
<feColorMatrix type="matrix" values="0 0 0 0 0 0 0 0 0 0 0 0 0 0 0 0 0 0 0.25 0"/>
<feBlend mode="normal" in2="BackgroundImageFix" result="effect1_dropShadow_456_751"/>
<feBlend mode="normal" in="SourceGraphic" in2="effect1_dropShadow_456_751" result="shape"/>
</filter>
</defs>
</svg>
