<svg width="34" height="28" viewBox="0 0 34 28" fill="none" xmlns="http://www.w3.org/2000/svg">
<path d="M18.113 4.99982C17.9248 5.18382 17.7367 5.37038 17.5042 5.59271L16.8651 6.2086L16.201 5.61315C16.0045 5.43682 15.8053 5.25537 15.6116 5.07904C13.5585 3.21347 12.0117 1.8079 8.82683 1.76957C8.70231 1.76701 8.5695 1.76957 8.43114 1.77468C6.64918 1.83346 5.00556 2.43913 3.80467 3.47414C2.62038 4.49637 1.86498 5.94538 1.84008 7.70873C1.83731 7.81862 1.84008 7.93362 1.84561 8.05884C2.03654 12.9834 7.13894 17.2794 11.3697 20.8393C12.186 21.5267 12.9691 22.1861 13.7189 22.8531L16.8346 25.6259L20.75 22.0378C21.3808 21.4603 22.0947 20.8291 22.8584 20.1544C24.1562 19.0044 25.6006 17.7291 26.9453 16.4437C27.911 15.5211 28.8269 14.5934 29.6045 13.7016C30.3682 12.8275 30.9935 11.997 31.3947 11.2559C32.0533 10.0394 32.2608 8.82296 32.1197 7.68573C31.9813 6.56383 31.5027 5.51604 30.786 4.62159C30.0583 3.71436 29.0898 2.96302 27.9802 2.44935C26.7019 1.86157 25.2381 1.58301 23.7411 1.74146C21.1595 2.01746 19.7843 3.36425 18.113 4.99982ZM16.8152 3.79358C18.7245 1.92546 20.31 0.394669 23.5308 0.0547772C25.3903 -0.142002 27.211 0.200445 28.7965 0.936451C30.1662 1.57023 31.3615 2.49535 32.258 3.61214C33.1629 4.7417 33.7688 6.06805 33.9459 7.49406C34.1258 8.94052 33.8657 10.4815 33.0328 12.0149C32.5624 12.8812 31.8651 13.8114 31.0323 14.7647C30.216 15.7 29.2641 16.666 28.2652 17.6193C26.8955 18.9303 25.4401 20.2183 24.1285 21.3785C23.362 22.0557 22.6454 22.6895 22.0422 23.2415L17.4876 27.4148L16.8485 28L16.201 27.425L12.4378 24.0772C11.7488 23.4664 10.9519 22.7943 10.1246 22.0966C5.63921 18.3169 0.22413 13.7603 0.00553406 8.11762C0 7.97962 0 7.83651 0 7.68828C0.0332044 5.42404 1.01273 3.55336 2.54844 2.22957C4.0703 0.918562 6.13727 0.151889 8.36197 0.0777774C8.51415 0.0726662 8.67464 0.0701106 8.84343 0.0726662C12.7283 0.121222 14.5048 1.6929 16.8152 3.79358Z" fill="white"/>
</svg>
