<svg width="30" height="27" viewBox="0 0 30 27" fill="none" xmlns="http://www.w3.org/2000/svg">
 <path  xmlns="http://www.w3.org/2000/svg" d="M16.066 5.21038C15.904 5.37986 15.7421 5.55168 15.542 5.75647L14.9917 6.32374L14.42 5.7753C14.2509 5.61288 14.0794 5.44576 13.9127 5.28335C12.1452 3.56506 10.8136 2.27046 8.07189 2.23515C7.9647 2.2328 7.85036 2.23515 7.73126 2.23986C6.19722 2.294 4.78229 2.85185 3.74848 3.80515C2.72897 4.74668 2.07867 6.08129 2.05723 7.70543C2.05485 7.80664 2.05723 7.91257 2.062 8.0279C2.22636 12.5637 6.61884 16.5205 10.261 19.7994C10.9637 20.4325 11.6378 21.0398 12.2833 21.6542L14.9655 24.2081L18.3361 20.9033C18.8792 20.3713 19.4938 19.7899 20.1512 19.1685C21.2684 18.1093 22.5118 16.9348 23.6695 15.7508C24.5008 14.9011 25.2893 14.0466 25.9586 13.2251C26.6161 12.4201 27.1544 11.6551 27.4998 10.9725C28.0667 9.85211 28.2454 8.73169 28.1239 7.68424C28.0048 6.65092 27.5927 5.68585 26.9758 4.86201C26.3493 4.02641 25.5156 3.33439 24.5604 2.86127C23.4599 2.31989 22.1998 2.06332 20.9111 2.20926C18.6887 2.46347 17.5048 3.70394 16.066 5.21038ZM14.9488 4.09938C16.5925 2.37873 17.9574 0.968796 20.7301 0.655738C22.3308 0.474494 23.8982 0.789906 25.2631 1.46781C26.4422 2.05155 27.4712 2.90364 28.243 3.93226C29.0219 4.97264 29.5436 6.19428 29.6961 7.50771C29.8509 8.83997 29.627 10.2593 28.91 11.6716C28.505 12.4696 27.9048 13.3264 27.1878 14.2043C26.4851 15.0658 25.6656 15.9556 24.8057 16.8335C23.6266 18.0411 22.3737 19.2274 21.2446 20.296C20.5848 20.9198 19.9678 21.5035 19.4485 22.0119L15.5277 25.8557L14.9774 26.3948L14.42 25.8652L11.1805 22.7816C10.5873 22.2191 9.9013 21.6 9.18907 20.9574C5.32778 17.4761 0.66612 13.2793 0.477939 8.08204C0.473175 7.95493 0.473175 7.82312 0.473175 7.6866C0.50176 5.60111 1.345 3.87812 2.66704 2.65884C3.97716 1.45133 5.75654 0.745183 7.67171 0.676923C7.80272 0.672215 7.94088 0.669861 8.08618 0.672215C11.4306 0.716938 12.9598 2.16454 14.9488 4.09938Z" fill="#3B4D59" fill-opacity="0.75"/>
<defs>
<linearGradient id="paint0_linear_456_739" x1="15.1079" y1="0.605225" x2="15.1079" y2="26.3947" gradientUnits="userSpaceOnUse">
<stop stop-color="#F23160"/>
<stop offset="1" stop-color="#EF6B63"/>
</linearGradient>
</defs>
</svg>
