<svg width="30" height="27" viewBox="0 0 30 27" fill="none" xmlns="http://www.w3.org/2000/svg">
<path d="M16.066 5.21032C15.904 5.37979 15.7421 5.55162 15.542 5.7564L14.9917 6.32368L14.42 5.77524C14.2509 5.61282 14.0794 5.4457 13.9127 5.28329C12.1452 3.565 10.8136 2.2704 8.07189 2.23509C7.9647 2.23274 7.85036 2.23509 7.73126 2.2398C6.19722 2.29394 4.78229 2.85179 3.74848 3.80509C2.72897 4.74662 2.07867 6.08123 2.05723 7.70537C2.05485 7.80658 2.05723 7.9125 2.062 8.02784C2.22636 12.5637 6.61884 16.5204 10.261 19.7993C10.9637 20.4325 11.6378 21.0398 12.2833 21.6541L14.9655 24.208L18.3361 20.9032C18.8792 20.3713 19.4938 19.7899 20.1512 19.1685C21.2684 18.1093 22.5118 16.9347 23.6695 15.7507C24.5008 14.901 25.2893 14.0466 25.9586 13.2251C26.6161 12.4201 27.1544 11.6551 27.4998 10.9725C28.0667 9.85205 28.2454 8.73163 28.1239 7.68418C28.0048 6.65086 27.5927 5.68579 26.9758 4.86195C26.3493 4.02635 25.5156 3.33432 24.5604 2.86121C23.4599 2.31983 22.1998 2.06326 20.9111 2.2092C18.6887 2.46341 17.5048 3.70387 16.066 5.21032ZM14.9488 4.09932C16.5925 2.37867 17.9574 0.968735 20.7301 0.655677C22.3308 0.474433 23.8982 0.789845 25.2631 1.46775C26.4422 2.05149 27.4712 2.90358 28.243 3.93219C29.0219 4.97258 29.5436 6.19422 29.6961 7.50765C29.8509 8.83991 29.627 10.2593 28.91 11.6716C28.505 12.4695 27.9048 13.3263 27.1878 14.2043C26.4851 15.0658 25.6656 15.9555 24.8057 16.8335C23.6266 18.041 22.3737 19.2273 21.2446 20.296C20.5848 20.9197 19.9678 21.5035 19.4485 22.0119L15.5277 25.8557L14.9774 26.3947L14.42 25.8651L11.1805 22.7816C10.5873 22.219 9.9013 21.6 9.18907 20.9574C5.32778 17.4761 0.66612 13.2792 0.477939 8.08198C0.473175 7.95487 0.473175 7.82306 0.473175 7.68654C0.50176 5.60105 1.345 3.87806 2.66704 2.65878C3.97716 1.45127 5.75654 0.745122 7.67171 0.676862C7.80272 0.672154 7.94088 0.6698 8.08618 0.672154C11.4306 0.716877 12.9598 2.16448 14.9488 4.09932Z" fill="url(#paint0_linear_456_739)"/>
<defs>
<linearGradient id="paint0_linear_456_739" x1="15.1079" y1="0.605225" x2="15.1079" y2="26.3947" gradientUnits="userSpaceOnUse">
<stop stop-color="#F23160"/>
<stop offset="1" stop-color="#EF6B63"/>
</linearGradient>
</defs>
</svg>
