<svg width="23" height="19" viewBox="0 0 23 19" fill="none" xmlns="http://www.w3.org/2000/svg">
<path d="M12.0753 4.11799C11.9499 4.23705 11.8244 4.35776 11.6695 4.50163L11.2434 4.90015L10.8006 4.51485C10.6697 4.40076 10.5369 4.28335 10.4077 4.16925C9.03897 2.96212 8.00779 2.05263 5.88455 2.02783C5.80154 2.02617 5.713 2.02783 5.62076 2.03113C4.43278 2.06917 3.33704 2.46107 2.53645 3.13078C1.74692 3.79223 1.24332 4.72982 1.22672 5.87081C1.22487 5.94192 1.22672 6.01633 1.23041 6.09736C1.35769 9.28386 4.75929 12.0636 7.57982 14.3671C8.124 14.8119 8.64605 15.2385 9.14596 15.6701L11.2231 17.4643L13.8333 15.1426C14.2539 14.7689 14.7298 14.3604 15.239 13.9239C16.1041 13.1798 17.067 12.3546 17.9636 11.5228C18.6074 10.9259 19.218 10.3256 19.7363 9.74852C20.2454 9.18299 20.6623 8.64557 20.9298 8.16602C21.3689 7.3789 21.5072 6.59179 21.4131 5.85593C21.3209 5.13 21.0018 4.45202 20.524 3.87325C20.0388 3.28622 19.3932 2.80006 18.6535 2.46769C17.8012 2.08736 16.8254 1.90711 15.8274 2.00964C14.1063 2.18823 13.1895 3.05968 12.0753 4.11799ZM11.2102 3.33749C12.483 2.1287 13.54 1.13819 15.6872 0.918257C16.9269 0.790929 18.1407 1.01251 19.1977 1.48875C20.1108 1.89885 20.9077 2.49745 21.5054 3.22008C22.1086 3.95097 22.5126 4.8092 22.6306 5.73191C22.7505 6.66785 22.5771 7.66498 22.0219 8.65714C21.7083 9.21772 21.2434 9.81963 20.6882 10.4364C20.144 11.0416 19.5094 11.6667 18.8435 12.2835C17.9304 13.1318 16.9601 13.9652 16.0857 14.716C15.5747 15.1542 15.0969 15.5643 14.6948 15.9214L11.6584 18.6218L11.2323 19.0005L10.8006 18.6284L8.29187 16.4622C7.83254 16.067 7.30127 15.6321 6.74971 15.1806C3.75947 12.7349 0.14942 9.78656 0.00368937 6.13539C0 6.0461 0 5.95349 0 5.85758C0.0221362 4.39249 0.675156 3.18205 1.69896 2.32548C2.71354 1.47718 4.09152 0.981094 5.57465 0.933139C5.6761 0.929832 5.78309 0.928178 5.89562 0.929832C8.48556 0.96125 9.66985 1.97822 11.2102 3.33749Z" fill="#6A7881"/>
</svg>
