<svg width="48" height="34" viewBox="0 0 48 34" fill="none" xmlns="http://www.w3.org/2000/svg">
<path fill-rule="evenodd" clip-rule="evenodd" d="M16.6667 31.6667C19.6188 31.6667 22.3718 30.8138 24.6927 29.341C24.9478 29.0436 25.1995 28.7432 25.4477 28.4399C25.696 28.1366 25.8335 27.7483 25.8335 27.3483C25.8362 26.9303 25.6876 26.5255 25.4151 26.2086C25.1426 25.8917 24.7646 25.684 24.351 25.6241C18.6393 24.8333 14.7118 24.7616 9.00766 25.5949C8.14516 25.7208 7.50016 26.4733 7.50016 27.3708C7.49904 27.7639 7.62763 28.1464 7.866 28.4591C8.06574 28.7192 8.26813 28.9772 8.47312 29.2331C10.8286 30.7721 13.6432 31.6667 16.6667 31.6667ZM24.5793 23.9741C26.1693 24.1937 27.354 25.495 27.4876 27.0545C30.0758 24.359 31.6667 20.6986 31.6667 16.6667C31.6667 8.3825 24.9508 1.66667 16.6667 1.66667C8.3825 1.66667 1.66667 8.3825 1.66667 16.6667C1.66667 20.6996 3.25829 24.3608 5.84764 27.0564C5.9884 25.493 7.16663 24.1802 8.76683 23.9466C14.646 23.0874 18.7327 23.1649 24.5793 23.9741ZM16.6667 33.3333C25.8717 33.3333 33.3333 25.8717 33.3333 16.6667C33.3333 7.46167 25.8717 0 16.6667 0C7.46167 0 0 7.46167 0 16.6667C0 25.8717 7.46167 33.3333 16.6667 33.3333ZM16.6668 17.4999C17.3234 17.4999 17.9736 17.3706 18.5802 17.1193C19.1869 16.868 19.7381 16.4997 20.2024 16.0355C20.6667 15.5712 21.035 15.02 21.2862 14.4133C21.5375 13.8067 21.6668 13.1565 21.6668 12.4999C21.6668 11.8433 21.5375 11.1931 21.2862 10.5865C21.035 9.97987 20.6667 9.42868 20.2024 8.96439C19.7381 8.50009 19.1869 8.13179 18.5802 7.88052C17.9736 7.62925 17.3234 7.49992 16.6668 7.49992C15.3407 7.49992 14.069 8.0267 13.1313 8.96439C12.1936 9.90207 11.6668 11.1738 11.6668 12.4999C11.6668 13.826 12.1936 15.0978 13.1313 16.0355C14.069 16.9731 15.3407 17.4999 16.6668 17.4999ZM16.6668 19.1666C18.4349 19.1666 20.1306 18.4642 21.3809 17.214C22.6311 15.9637 23.3335 14.268 23.3335 12.4999C23.3335 10.7318 22.6311 9.03612 21.3809 7.78587C20.1306 6.53563 18.4349 5.83325 16.6668 5.83325C14.8987 5.83325 13.203 6.53563 11.9528 7.78587C10.7025 9.03612 10.0002 10.7318 10.0002 12.4999C10.0002 14.268 10.7025 15.9637 11.9528 17.214C13.203 18.4642 14.8987 19.1666 16.6668 19.1666ZM43.1977 23.4115L47.4966 15.9656H38.8988L43.1977 23.4115Z" fill="white"/>
</svg>
