<svg width="25" height="16" viewBox="0 0 25 16" fill="none" xmlns="http://www.w3.org/2000/svg">
<path fill-rule="evenodd" clip-rule="evenodd" d="M20.8541 0L24.9907 2.59808L20.8541 5.19615V3.34814H14.2301L11.7452 7.70806L14.1048 11.8481H20.8541V10.0977L24.9907 12.6957L20.8541 15.2938V13.3481H13.669H13.2332L13.0174 12.9695L10.8819 9.22272L8.74652 12.9695L8.53073 13.3481H8.09492H1C0.585786 13.3481 0.25 13.0124 0.25 12.5981C0.25 12.1839 0.585786 11.8481 1 11.8481H7.65911L10.0187 7.70806L7.53382 3.34814H1.00006C0.585848 3.34814 0.250061 3.01236 0.250061 2.59814C0.250061 2.18393 0.585848 1.84814 1.00006 1.84814H7.96963H8.40544L8.62123 2.22677L10.8819 6.1934L13.1427 2.22677L13.3584 1.84814H13.7943H20.8541V0Z" fill="#6A7881"/>
</svg>
