<svg width="41" height="16" viewBox="0 0 41 16" fill="none" xmlns="http://www.w3.org/2000/svg">
<path fill-rule="evenodd" clip-rule="evenodd" d="M5.17773 0H0V15.6406H2.07324V9.30273H5.74219L9.1416 15.6406H11.3545V15.5117L7.68053 8.86993C8.16314 8.68576 8.59288 8.45047 8.96973 8.16406C9.514 7.7487 9.92936 7.2474 10.2158 6.66016C10.5094 6.06576 10.6562 5.41048 10.6562 4.69434C10.6562 3.67741 10.4414 2.82161 10.0117 2.12695C9.58919 1.42513 8.96973 0.895182 8.15332 0.537109C7.34408 0.179036 6.35221 0 5.17773 0ZM2.07324 7.61621H5.24219C5.98698 7.61621 6.60645 7.4873 7.10059 7.22949C7.59473 6.96452 7.96712 6.61003 8.21777 6.16602C8.46842 5.72201 8.59375 5.23145 8.59375 4.69434C8.59375 4.09277 8.47559 3.56641 8.23926 3.11523C8.00293 2.66406 7.63053 2.31673 7.12207 2.07324C6.62077 1.82259 5.97266 1.69727 5.17773 1.69727H2.07324V7.61621ZM24.5674 0H22.5049V10.5811C22.5049 11.3975 22.3545 12.0706 22.0537 12.6006C21.7529 13.1305 21.3304 13.5244 20.7861 13.7822C20.249 14.04 19.6188 14.1689 18.8955 14.1689C18.1794 14.1689 17.5492 14.04 17.0049 13.7822C16.4678 13.5244 16.0488 13.1305 15.748 12.6006C15.4473 12.0706 15.2969 11.3975 15.2969 10.5811V0H13.2451V10.5811C13.2451 11.7555 13.4922 12.7331 13.9863 13.5137C14.4876 14.2943 15.1644 14.8815 16.0166 15.2754C16.876 15.6621 17.8356 15.8555 18.8955 15.8555C19.9053 15.8555 20.8398 15.6621 21.6992 15.2754C22.5658 14.8815 23.2604 14.2943 23.7832 13.5137C24.306 12.7331 24.5674 11.7555 24.5674 10.5811V0ZM36.3803 13.8008L40.6793 6.35484L32.0814 6.35484L36.3803 13.8008Z" fill="white"/>
</svg>
